HIERARCHY
ROOT Hips
{
	OFFSET 0.000000 0.000000 0.000000
	CHANNELS 6 Xposition Yposition Zposition Xrotation Yrotation Zrotation
	JOINT LeftUpLeg_virtual
	{
		OFFSET 0.000000 0.000000 0.000000
		CHANNELS 3 Xrotation Yrotation Zrotation
		JOINT LeftUpLeg
		{
			OFFSET 15.427100 -6.655098 0.678600
			CHANNELS 3 Xrotation Yrotation Zrotation
			JOINT LeftLeg
			{
				OFFSET 4.081073 -39.591068 13.024000
				CHANNELS 3 Xrotation Yrotation Zrotation
				JOINT LeftFoot
				{
					OFFSET -4.081074 -37.707932 -15.979700
					CHANNELS 3 Xrotation Yrotation Zrotation
					JOINT LeftToeBase
					{
						OFFSET 5.346399 -15.068900 20.645000
						CHANNELS 3 Xrotation Yrotation Zrotation
						JOINT LeftToe_End
						{
							OFFSET 2.754700 0.931300 11.300900
							CHANNELS 3 Xrotation Yrotation Zrotation
							End Site
							{
								OFFSET 0 0 0
							}
						}
					}
				}
			}
		}
	}
	JOINT RightUpLeg_virtual
	{
		OFFSET 0.000000 0.000000 0.000000
		CHANNELS 3 Xrotation Yrotation Zrotation
		JOINT RightUpLeg
		{
			OFFSET -15.569500 -6.655098 0.678600
			CHANNELS 3 Xrotation Yrotation Zrotation
			JOINT RightLeg
			{
				OFFSET -4.081825 -39.591045 13.023800
				CHANNELS 3 Xrotation Yrotation Zrotation
				JOINT RightFoot
				{
					OFFSET 4.081824 -37.707954 -15.979600
					CHANNELS 3 Xrotation Yrotation Zrotation
					JOINT RightToeBase
					{
						OFFSET -5.346400 -15.068900 20.645000
						CHANNELS 3 Xrotation Yrotation Zrotation
						JOINT RightToe_End
						{
							OFFSET -2.754700 0.931300 11.300900
							CHANNELS 3 Xrotation Yrotation Zrotation
							End Site
							{
								OFFSET 0 0 0
							}
						}
					}
				}
			}
		}
	}
	JOINT Spine_virtual
	{
		OFFSET 0.000000 0.000000 0.000000
		CHANNELS 3 Xrotation Yrotation Zrotation
		JOINT Spine
		{
			OFFSET -0.279200 12.230698 -2.892100
			CHANNELS 3 Xrotation Yrotation Zrotation
			JOINT Spine1
			{
				OFFSET -0.232667 10.192268 -1.242267
				CHANNELS 3 Xrotation Yrotation Zrotation
				JOINT Spine1_split
				{
					OFFSET -0.232667 10.192268 -1.242267
					CHANNELS 3 Xrotation Yrotation Zrotation
					JOINT Spine2
					{
						OFFSET -0.232667 10.192268 -1.242267
						CHANNELS 3 Xrotation Yrotation Zrotation
						JOINT Neck_virtual
						{
							OFFSET 0.000000 0.000000 0.000000
							CHANNELS 3 Xrotation Yrotation Zrotation
							JOINT Neck
							{
								OFFSET -0.418800 17.814194 8.416900
								CHANNELS 3 Xrotation Yrotation Zrotation
								JOINT Head
								{
									OFFSET 0.000000 7.031097 3.806800
									CHANNELS 3 Xrotation Yrotation Zrotation
									JOINT HeadTop_End
									{
										OFFSET 0.000000 24.646606 12.978600
										CHANNELS 3 Xrotation Yrotation Zrotation
										End Site
										{
											OFFSET 0 0 0
										}
									}
								}
							}
						}
						JOINT LeftShoulder_virtual
						{
							OFFSET 0.000000 0.000000 0.000000
							CHANNELS 3 Xrotation Yrotation Zrotation
							JOINT LeftShoulder
							{
								OFFSET 8.476499 7.247704 -3.868750
								CHANNELS 3 Xrotation Yrotation Zrotation
								JOINT LeftShoulder_split
								{
									OFFSET 8.476499 7.247704 -3.868750
									CHANNELS 3 Xrotation Yrotation Zrotation
									JOINT LeftArm
									{
										OFFSET 9.308998 -2.777710 0.208600
										CHANNELS 3 Xrotation Yrotation Zrotation
										JOINT LeftForeArm
										{
											OFFSET 29.972298 0.000000 0.000000
											CHANNELS 3 Xrotation Yrotation Zrotation
											JOINT LeftHand
											{
												OFFSET 26.026505 0.000000 0.000000
												CHANNELS 3 Xrotation Yrotation Zrotation
												End Site
												{
													OFFSET 0 0 0
												}
											}
										}
									}
								}
							}
						}
						JOINT RightShoulder_virtual
						{
							OFFSET 0.000000 0.000000 0.000000
							CHANNELS 3 Xrotation Yrotation Zrotation
							JOINT RightShoulder
							{
								OFFSET -7.570500 7.247704 -3.868750
								CHANNELS 3 Xrotation Yrotation Zrotation
								JOINT RightShoulder_split
								{
									OFFSET -7.570500 7.247704 -3.868750
									CHANNELS 3 Xrotation Yrotation Zrotation
									JOINT RightArm
									{
										OFFSET -9.308998 -2.777710 0.208500
										CHANNELS 3 Xrotation Yrotation Zrotation
										JOINT RightForeArm
										{
											OFFSET -29.972300 0.000000 0.000000
											CHANNELS 3 Xrotation Yrotation Zrotation
											JOINT RightHand
											{
												OFFSET -26.026505 0.000000 0.000000
												CHANNELS 3 Xrotation Yrotation Zrotation
												End Site
												{
													OFFSET 0 0 0
												}
											}
										}
									}
								}
							}
						}
					}
				}
			}
		}
	}
}
MOTION
Frames: 8
Frame Time: 0.03333333
67.950470 90.435944 156.924835 0.000000 0.000000 0.000000 -7.641833 37.214627 9.765665 -16.123017 8.609241 -16.320416 34.485820 -11.413717 -4.418872 13.021725 1.025133 16.802694 -27.738274 0.016287 4.160554 0.000000 0.000000 0.000000 -6.918611 39.646888 9.566168 -8.351560 16.508231 -2.182860 51.583235 -5.437063 -1.333819 4.028489 -8.645589 -3.014302 -41.716279 -0.435886 5.779185 0.000000 0.000000 0.000000 -7.393308 38.347506 9.677591 4.134530 -1.615327 -5.839994 -1.809473 -1.270775 1.002957 0.797725 0.789603 0.137580 0.000000 0.000000 0.000000 -1.688488 -1.129272 1.207034 -8.955256 3.492926 2.269997 6.292577 6.600286 -2.864355 0.000000 0.000000 0.000000 -1.994268 -0.805436 1.264856 0.814410 8.803983 -3.202308 0.690913 2.581835 -0.966574 6.425044 -8.761026 -68.773161 11.732055 -24.501091 4.295835 0.000000 0.000000 0.000000 -1.656538 -1.149023 1.214898 0.649733 2.369687 3.264416 1.369402 0.944206 -2.559994 -0.767497 7.889087 77.989934 11.661514 14.812018 -3.096189 0.000000 0.000000 0.000000 
69.943108 91.107384 159.120209 0.000000 0.000000 0.000000 -6.918726 39.214742 8.110408 -13.019047 6.644662 -15.156851 32.203553 -11.396720 -3.897695 7.871970 2.384765 18.457335 -26.307845 0.873326 2.020865 0.000000 0.000000 0.000000 -6.278556 41.185242 7.900657 -13.110341 16.423338 -1.193650 47.497620 -5.587271 -1.404117 3.411198 -8.647116 -5.791443 -31.785976 0.279070 5.496205 0.000000 0.000000 0.000000 -6.985029 39.690742 8.401577 4.719447 -2.178187 -5.239582 -2.066453 -1.687254 1.103496 0.905570 0.897164 0.096814 0.000000 0.000000 0.000000 -1.753488 -1.487470 1.337675 -8.839345 3.555607 2.638634 6.373203 6.773865 -3.327203 0.000000 0.000000 0.000000 -2.004686 -1.263008 1.464976 0.617477 7.595286 -2.959849 0.750622 3.092079 -0.826330 4.996982 -10.868979 -68.558256 11.842729 -24.830878 4.521289 0.000000 0.000000 0.000000 -1.862013 -1.578476 1.388118 0.333838 1.200558 3.927396 1.796515 1.220215 -2.592967 -0.457217 6.769809 77.204627 11.474988 14.735302 -3.215443 0.000000 0.000000 0.000000 
72.091171 91.941116 161.338715 0.000000 0.000000 0.000000 -5.999031 41.609232 6.651830 -9.382370 5.909805 -13.928993 28.748601 -12.421987 -3.782128 3.339207 2.388126 19.135697 -26.577984 1.416448 0.715261 0.000000 0.000000 0.000000 -5.348062 43.066651 6.394853 -16.891673 14.845392 -1.291668 41.972568 -3.795693 -1.318220 7.888057 -6.806256 -3.876278 -28.565543 0.820971 3.988591 0.000000 0.000000 0.000000 -6.336372 41.409333 7.237520 5.128333 -2.638665 -4.986048 -2.286248 -2.071805 1.221072 1.141318 1.032324 -0.045916 0.000000 0.000000 0.000000 -1.844296 -1.840654 1.468756 -8.735827 3.411106 3.386746 6.200093 6.898948 -3.708827 0.000000 0.000000 0.000000 -2.090061 -1.696436 1.635423 0.465925 6.326193 -2.716693 0.818611 3.454206 -0.730409 3.482039 -12.869162 -68.399850 11.920561 -24.978698 4.780370 0.000000 0.000000 0.000000 -2.042576 -2.001897 1.551218 0.040475 0.016302 4.781821 2.212979 1.573899 -2.610070 0.091397 5.695235 76.417201 11.349193 14.866796 -3.406608 0.000000 0.000000 0.000000 
74.284233 92.610352 163.583710 0.000000 0.000000 0.000000 -5.230156 44.460409 5.788674 -6.004837 6.724909 -12.513231 25.189519 -14.750115 -4.370718 1.835554 0.819410 19.063128 -28.461364 1.305840 0.957280 0.000000 0.000000 0.000000 -4.249361 45.774179 5.327546 -19.437434 12.523070 -2.392697 35.277135 -0.711836 -0.766158 14.187345 -3.358632 0.180017 -28.917645 1.164534 2.032021 0.000000 0.000000 0.000000 -5.761347 43.601452 6.539840 5.403264 -3.036043 -5.252816 -2.406217 -2.423497 1.407188 1.137195 1.147064 -0.107822 0.000000 0.000000 0.000000 -1.959837 -2.155690 1.646650 -8.755667 3.062005 4.440176 5.782963 6.966200 -3.902849 0.000000 0.000000 0.000000 -2.225968 -2.068340 1.823566 0.358812 5.134743 -2.347539 0.913078 3.634505 -0.712617 1.979291 -14.543843 -68.344819 11.908357 -25.245537 5.035034 0.000000 0.000000 0.000000 -2.199390 -2.379229 1.744090 -0.212344 -1.129416 5.756139 2.674644 2.003034 -2.600741 0.885595 4.846222 75.610700 11.326815 15.158172 -3.665057 0.000000 0.000000 0.000000 
76.531250 92.954926 165.903320 0.000000 0.000000 0.000000 -4.496613 47.653718 5.475396 -3.484458 8.760852 -11.213944 22.673096 -17.792885 -5.459827 2.708916 -1.627530 19.930277 -28.958315 0.798175 1.573508 0.000000 0.000000 0.000000 -2.854624 49.275645 4.647740 -20.566468 9.714657 -4.212853 28.711086 2.066632 0.300047 19.350032 0.323990 3.073237 -28.916992 1.427901 0.381442 0.000000 0.000000 0.000000 -5.440098 46.503715 6.477229 5.533742 -3.447493 -6.072518 -2.381193 -2.732269 1.690158 0.995528 1.331462 -0.174916 0.000000 0.000000 0.000000 -2.070015 -2.399662 1.891433 -9.047986 2.483540 5.641393 5.222678 6.935416 -3.862107 0.000000 0.000000 0.000000 -2.337511 -2.334706 2.077841 0.292028 4.086834 -1.761800 1.084119 3.609611 -0.829365 0.528289 -15.778569 -68.366567 11.808449 -25.853164 5.286610 0.000000 0.000000 0.000000 -2.304822 -2.673042 1.995329 -0.425710 -2.164909 6.822673 3.205668 2.507409 -2.557642 1.738606 4.216268 74.784281 11.393649 15.448001 -3.943631 0.000000 0.000000 0.000000 
78.833328 92.877411 168.648193 0.000000 0.000000 0.000000 -3.599714 50.558365 5.475301 -1.152479 11.396030 -10.245927 21.286744 -20.786492 -6.516453 3.608829 -4.129198 22.203302 -26.718821 0.304663 1.937798 0.000000 0.000000 0.000000 -1.490251 53.053672 4.410216 -21.203469 6.764743 -6.341154 23.396868 3.595170 1.723315 22.557680 2.482267 3.652055 -26.764207 1.534772 -0.521743 0.000000 0.000000 0.000000 -5.365356 49.714420 6.945570 5.523624 -3.834244 -7.333527 -2.183987 -2.967859 2.057236 0.777318 1.592501 -0.183808 0.000000 0.000000 0.000000 -2.099134 -2.548721 2.206914 -9.637102 1.729109 6.865314 4.666760 6.810114 -3.582310 0.000000 0.000000 0.000000 -2.401436 -2.478231 2.417636 0.253547 3.194654 -0.957518 1.178089 3.321934 -1.040553 -0.866932 -16.466497 -68.475440 11.608263 -26.755403 5.508574 0.000000 0.000000 0.000000 -2.317957 -2.845259 2.312950 -0.604613 -3.032105 7.911841 3.649375 2.857837 -2.405742 2.427340 3.716610 73.982970 11.490616 15.485227 -4.199159 0.000000 0.000000 0.000000 
81.144745 92.362633 171.482620 0.000000 0.000000 0.000000 -2.961798 53.155384 5.815660 1.222634 13.502679 -9.404442 20.698714 -23.440799 -7.124445 3.280900 -6.219844 23.820503 -23.734364 0.112188 1.910822 0.000000 0.000000 0.000000 -0.577797 56.491330 4.539783 -22.017183 4.339045 -8.037353 20.208318 4.224081 3.005660 23.957163 2.893970 2.677722 -23.275060 1.538860 -0.778022 0.000000 0.000000 0.000000 -5.906704 52.836738 7.906695 5.405115 -4.173848 -8.753389 -1.859618 -3.082548 2.487678 0.537266 1.806005 -0.283782 0.000000 0.000000 0.000000 -1.978507 -2.595663 2.561581 -10.306545 0.936062 7.905914 4.326223 6.537381 -3.132486 0.000000 0.000000 0.000000 -2.381373 -2.504820 2.800812 0.224569 2.567429 -0.045249 1.152621 2.857659 -1.381780 -2.027235 -16.659168 -68.664192 11.396162 -27.852917 5.689146 0.000000 0.000000 0.000000 -2.222808 -2.888933 2.667573 -0.756537 -3.655592 8.937711 3.822097 2.912901 -2.204971 2.775738 3.265776 73.255637 11.552490 15.036363 -4.385004 0.000000 0.000000 0.000000 
83.637260 91.658707 174.571136 0.000000 0.000000 0.000000 -2.859615 55.360787 6.319556 3.660317 14.243723 -8.557350 20.797363 -25.503931 -7.064798 1.364255 -7.513635 24.059580 -23.054443 0.114266 1.572978 0.000000 0.000000 0.000000 -0.191158 59.396500 4.761045 -23.005038 2.498302 -8.767408 19.902357 4.204446 3.844983 24.567159 2.082153 1.327456 -21.226951 1.550867 -0.623864 0.000000 0.000000 0.000000 -6.705278 55.439286 8.892594 5.056276 -4.374823 -9.989287 -1.491270 -3.068209 2.899370 0.472252 2.175392 -0.464404 0.000000 0.000000 0.000000 -1.690149 -2.560715 2.901674 -10.868366 0.218940 8.585268 4.364413 6.163704 -2.630226 0.000000 0.000000 0.000000 -2.280802 -2.433529 3.177667 0.185883 2.226637 0.784095 1.075177 2.130316 -1.756277 -2.735273 -16.488113 -68.934299 11.266088 -28.786717 5.812727 0.000000 0.000000 0.000000 -1.992946 -2.824571 3.012724 -0.863483 -3.951369 9.858943 3.670269 2.682265 -1.994052 2.792431 2.807223 72.762080 11.566960 14.097182 -4.497365 0.000000 0.000000 0.000000 
